<?xml version="1.0" encoding="UTF-8"?>
<svg id="_Слой_2" data-name="Слой 2" xmlns="http://www.w3.org/2000/svg" viewBox="0 0 181.87 99.69">
  <defs>
    <style>
      .cls-1 {
        letter-spacing: .06em;
      }

      .cls-1, .cls-2 {
        font-family: SegoeUISymbol, 'Segoe UI Symbol';
        font-size: 24px;
      }

      .cls-3 {
        fill: #201600;
      }

      .cls-4 {
        letter-spacing: 0em;
      }

      .cls-5 {
        letter-spacing: .08em;
      }

      .cls-6 {
        fill: none;
      }

      .cls-7 {
        letter-spacing: .08em;
      }
    </style>
  </defs>
  <g id="_Слой_2-2" data-name="Слой 2">
    <g>
      <g>
        <path class="cls-3" d="M140.7,6.88c-1.31-1.81-2.04-2.22-2.55-2.43-1.68-.66-3.36,.01-4.34,.38-2.66,1.01-5.52,1.46-8.22,2.33,0,0,0,0,0,0-.1-.37-20.85,5.05-62.23,16.27,2.39-4.33,.84-7.86-1.81-10.43-2.98-2.88-7.79-1.85-8.68-1.66-2.6,.56-4.34,1.9-7.53,4.34-3.69,2.83-4.14,4.11-6.64,4.98-2.09,.73-3.91,.57-6.26,.26-8.7-1.17-10.13-2.64-14.44-3-5.5-.46-13.68,1.04-16.46,6.19C.04,26.91,.07,30.99,.02,31.77c-.09,1.34,.15-.15,.6,4.98,.47,5.33,2.49,10.46,7.45,17.36,1.8,2.5,3.49,5.17,13.79,10.09,1.27,.61,5.94,1.07,9.57-.51,2.24-.98,2.77-2.44,2.3-2.86h0c-.09-.03-.29,.02-.37-.11-1.04-1.69-6.58-2.46-8.31-8.06-1.32-4.28-.08-9.52,3.19-12,1.53-1.16,3.14-1.45,5.74-1.91,5.44-.98,6.7,.62,8.68-.64,3.5-2.22,.94-8.04,4.6-10.21,1.73-1.03,5.04-.7,7.09,.3,.48,.24,1.93,1.02,2.08,.81,1.02,2.16,9.85-.6,9.85-.6,9.68-3.03,35.66-10.76,48.38-14.04,4.33-1.12,10.85-2.75,15.21-3.87,.74-.06,1.57-.2,2.48-.52,.3-.1,.57-.22,.82-.34,.19-.05,.38-.1,.53-.14,.04,.24,.11,.55,.31,.86,.32,.51,.67,.67,1.91,1.4,1.03,.61,1.64,.96,1.92,1.17,.16,.09,.31,.19,.46,.29,.43,.24,1.23,.67,1.94,1-.07-.02-.13-.05-.19-.07,.08,.04,.15,.09,.23,.13,.1,.04,.19,.09,.28,.14,.22,.07,.43,.14,.65,.18,.1,.03,.19,.05,.26,.05,.55,.07,1.61,.05,2.04-.38,1.45-1.44-2.46-6.91-2.81-7.4Z"/>
        <circle class="cls-3" cx="123.88" cy="5.14" r="2.09"/>
        <circle class="cls-3" cx="129.13" cy="3.47" r="2.09"/>
        <circle class="cls-3" cx="134.39" cy="2.09" r="2.09"/>
      </g>
      <text class="cls-2" transform="translate(35.13 59.39)"><tspan class="cls-5" x="0" y="0">GUI</tspan><tspan class="cls-4" x="45.39" y="0">T</tspan><tspan class="cls-7" x="58.17" y="0">AR</tspan></text>
      <text class="cls-1" transform="translate(55.06 80.75)"><tspan x="0" y="0">SCHOOL</tspan></text>
    </g>
    <path class="cls-3" d="M55.75,28.53c-.09,0,.09,0,0,0,0-.04,0,.04,0,0Z"/>
    <path class="cls-6" d="M55.18,27.88h-.26"/>
  </g>
</svg>